<svg xmlns="http://www.w3.org/2000/svg" xmlns:xlink="http://www.w3.org/1999/xlink" version="1.1" x="0px" y="0px" viewBox="0 0 30 37.5" style="enable-background:new 0 0 30 30;" xml:space="preserve"><g><path d="M481.131,231.991c-1.117-1.211-2.238-2.019-3.529-2.544c-0.235-0.095-0.474-0.179-0.714-0.25   c-0.743-3.432-2.315-5.881-4.683-7.287c-2.273-1.35-4.688-1.686-7.143-0.938c-0.868-0.766-1.867-1.382-2.926-1.799   c-2.838-1.12-6.043-0.745-8.791,1.02c-0.305,0.196-0.597,0.41-0.836,0.607c-0.877,0.649-1.613,1.45-2.16,2.349   c-0.645-0.067-1.288-0.068-1.978-0.01c-0.416,0.035-0.83,0.126-1.246,0.243c-1.991-0.997-4.086-1.221-6.202-0.579   c-0.829-0.729-1.783-1.314-2.791-1.711c-2.719-1.074-5.799-0.716-8.442,0.98c-0.293,0.187-0.573,0.394-0.799,0.581   c-0.835,0.617-1.538,1.379-2.062,2.232c-0.61-0.063-1.22-0.062-1.867-0.006c-1.175,0.099-2.32,0.525-3.605,1.342   c-1.679,1.066-2.909,2.896-3.555,5.296c-0.221,0.82-0.306,1.716-0.254,2.63c-1.467,0.507-2.743,1.465-3.586,2.716   c-2.097,3.112-1.681,7.155,0.965,9.406c1.279,1.085,2.964,1.619,4.698,1.497c1.158,1.713,2.783,2.942,4.536,3.414   c0.834,0.225,1.612,0.343,2.347,0.353c0.601,0.009,1.173-0.055,1.723-0.189c1.385-0.337,2.584-0.979,3.648-1.958   c1.995,1.59,4.835,2.303,7.452,1.833c1.835-0.331,3.548-1.21,4.956-2.535c0.971,0.898,2.077,1.571,3.255,1.888   c0.869,0.234,1.68,0.356,2.444,0.367c0.625,0.009,1.219-0.057,1.791-0.195c1.456-0.354,2.714-1.031,3.827-2.066   c2.083,1.675,5.065,2.428,7.795,1.933c2.24-0.404,4.294-1.588,5.864-3.362c3.465,1.341,7.594,0.739,10.287-1.578   c2.07-1.779,3.413-4.194,3.68-6.625c0.299-2.71-0.466-5.281-2.097-7.054C481.131,231.991,481.131,231.991,481.131,231.991z    M438.965,249.192c-2.256,0.401-4.697-0.299-6.387-1.949c-0.202-0.213-0.56-0.236-0.855-0.231c-0.293,0.01-0.646,0.231-0.834,0.456   c-0.914,0.98-1.914,1.577-3.145,1.876c-0.881,0.214-1.873,0.164-3.048-0.152c-1.425-0.384-2.756-1.491-3.653-3.039   c-0.216-0.372-0.634-0.574-1.06-0.499c-1.386,0.23-2.739-0.117-3.722-0.954c-2.104-1.788-1.875-4.78-0.591-6.685   c0.713-1.06,1.881-1.825,3.203-2.099c0.537-0.112,0.893-0.626,0.808-1.168c-0.147-0.946-0.109-1.878,0.111-2.695   c0.356-1.32,1.107-3.101,2.671-4.093c0.995-0.632,1.845-0.959,2.675-1.029c0.729-0.061,1.389-0.034,2.081,0.083   c0.443,0.073,0.902-0.154,1.102-0.568c0.397-0.824,1.017-1.562,1.836-2.169c0.206-0.169,0.422-0.327,0.647-0.472   c2.08-1.335,4.474-1.627,6.576-0.798c0.943,0.372,1.828,0.958,2.559,1.694c0.286,0.288,0.824,0.338,1.204,0.192   c1.112-0.421,2.233-0.482,3.353-0.254c-1.678,1.12-2.918,2.979-3.573,5.411c-0.234,0.867-0.322,1.812-0.264,2.777   c-1.539,0.523-2.88,1.525-3.763,2.834c-2.18,3.235-1.749,7.44,1.001,9.78c1.334,1.135,3.094,1.685,4.911,1.555   c0.037,0.055,0.083,0.098,0.12,0.152c-0.011,0.009-0.025,0.012-0.035,0.022C441.772,248.23,440.414,248.93,438.965,249.192z    M481.184,238.82c-0.212,1.917-1.298,3.845-2.977,5.29c-2.287,1.967-5.907,2.36-8.796,0.958c-0.443-0.214-0.973-0.089-1.268,0.302   c-1.307,1.713-3.122,2.854-5.11,3.213c-2.372,0.426-4.946-0.311-6.735-2.061c-0.203-0.209-0.569-0.226-0.858-0.22   c-0.292,0.011-0.646,0.237-0.833,0.462c-0.964,1.033-2.018,1.662-3.316,1.978c-0.926,0.224-1.975,0.173-3.213-0.16   c-1.503-0.404-2.907-1.571-3.852-3.203c-0.184-0.317-0.518-0.508-0.877-0.513c-0.06-0.001-0.123,0.003-0.185,0.014   c-1.462,0.24-2.895-0.126-3.934-1.01c-2.223-1.89-1.983-5.048-0.627-7.059c0.754-1.119,1.987-1.927,3.382-2.216   c0.537-0.112,0.893-0.626,0.808-1.169c-0.155-0.996-0.115-1.978,0.118-2.841c0.375-1.389,1.166-3.265,2.815-4.311   c1.047-0.665,1.943-1.009,2.818-1.085c0.773-0.063,1.472-0.034,2.193,0.088c0.452,0.073,0.905-0.154,1.103-0.569   c0.419-0.868,1.072-1.648,1.932-2.284c0.218-0.178,0.444-0.344,0.684-0.498c2.189-1.404,4.715-1.71,6.926-0.839   c0.994,0.392,1.926,1.009,2.694,1.783c0.286,0.292,0.831,0.338,1.209,0.191c1.926-0.733,3.954-0.519,5.869,0.618   c1.977,1.175,3.268,3.374,3.836,6.536c0.074,0.413,0.392,0.74,0.802,0.826c0.352,0.074,0.699,0.177,1.037,0.314   c1.013,0.412,1.874,1.039,2.79,2.032C480.845,234.723,481.417,236.702,481.184,238.82z"/></g><g><path d="M481.131,231.991c-1.117-1.211-2.238-2.019-3.529-2.544c-0.235-0.095-0.474-0.179-0.714-0.25   c-0.743-3.432-2.315-5.881-4.683-7.287c-2.273-1.35-4.688-1.686-7.143-0.938c-0.868-0.766-1.867-1.382-2.926-1.799   c-2.838-1.12-6.043-0.745-8.791,1.02c-0.305,0.196-0.597,0.41-0.836,0.607c-0.877,0.649-1.613,1.45-2.16,2.349   c-0.645-0.067-1.288-0.068-1.978-0.01c-0.416,0.035-0.83,0.126-1.246,0.243c-1.991-0.997-4.086-1.221-6.202-0.579   c-0.829-0.729-1.783-1.314-2.791-1.711c-2.719-1.074-5.799-0.716-8.442,0.98c-0.293,0.187-0.573,0.394-0.799,0.581   c-0.835,0.617-1.538,1.379-2.062,2.232c-0.61-0.063-1.22-0.062-1.867-0.006c-1.175,0.099-2.32,0.525-3.605,1.342   c-1.679,1.066-2.909,2.896-3.555,5.296c-0.221,0.82-0.306,1.716-0.254,2.63c-1.467,0.507-2.743,1.465-3.586,2.716   c-2.097,3.112-1.681,7.155,0.965,9.406c1.279,1.085,2.964,1.619,4.698,1.497c1.158,1.713,2.783,2.942,4.536,3.414   c0.834,0.225,1.612,0.343,2.347,0.353c0.601,0.009,1.173-0.055,1.723-0.189c1.385-0.337,2.584-0.979,3.648-1.958   c1.995,1.59,4.835,2.303,7.452,1.833c1.835-0.331,3.548-1.21,4.956-2.535c0.971,0.898,2.077,1.571,3.255,1.888   c0.869,0.234,1.68,0.356,2.444,0.367c0.625,0.009,1.219-0.057,1.791-0.195c1.456-0.354,2.714-1.031,3.827-2.066   c2.083,1.675,5.065,2.428,7.795,1.933c2.24-0.404,4.294-1.588,5.864-3.362c3.465,1.341,7.594,0.739,10.287-1.578   c2.07-1.779,3.413-4.194,3.68-6.625c0.299-2.71-0.466-5.281-2.097-7.054C481.131,231.991,481.131,231.991,481.131,231.991z    M438.965,249.192c-2.256,0.401-4.697-0.299-6.387-1.949c-0.202-0.213-0.56-0.236-0.855-0.231c-0.293,0.01-0.646,0.231-0.834,0.456   c-0.914,0.98-1.914,1.577-3.145,1.876c-0.881,0.214-1.873,0.164-3.048-0.152c-1.425-0.384-2.756-1.491-3.653-3.039   c-0.216-0.372-0.634-0.574-1.06-0.499c-1.386,0.23-2.739-0.117-3.722-0.954c-2.104-1.788-1.875-4.78-0.591-6.685   c0.713-1.06,1.881-1.825,3.203-2.099c0.537-0.112,0.893-0.626,0.808-1.168c-0.147-0.946-0.109-1.878,0.111-2.695   c0.356-1.32,1.107-3.101,2.671-4.093c0.995-0.632,1.845-0.959,2.675-1.029c0.729-0.061,1.389-0.034,2.081,0.083   c0.443,0.073,0.902-0.154,1.102-0.568c0.397-0.824,1.017-1.562,1.836-2.169c0.206-0.169,0.422-0.327,0.647-0.472   c2.08-1.335,4.474-1.627,6.576-0.798c0.943,0.372,1.828,0.958,2.559,1.694c0.286,0.288,0.824,0.338,1.204,0.192   c1.112-0.421,2.233-0.482,3.353-0.254c-1.678,1.12-2.918,2.979-3.573,5.411c-0.234,0.867-0.322,1.812-0.264,2.777   c-1.539,0.523-2.88,1.525-3.763,2.834c-2.18,3.235-1.749,7.44,1.001,9.78c1.334,1.135,3.094,1.685,4.911,1.555   c0.037,0.055,0.083,0.098,0.12,0.152c-0.011,0.009-0.025,0.012-0.035,0.022C441.772,248.23,440.414,248.93,438.965,249.192z    M481.184,238.82c-0.212,1.917-1.298,3.845-2.977,5.29c-2.287,1.967-5.907,2.36-8.796,0.958c-0.443-0.214-0.973-0.089-1.268,0.302   c-1.307,1.713-3.122,2.854-5.11,3.213c-2.372,0.426-4.946-0.311-6.735-2.061c-0.203-0.209-0.569-0.226-0.858-0.22   c-0.292,0.011-0.646,0.237-0.833,0.462c-0.964,1.033-2.018,1.662-3.316,1.978c-0.926,0.224-1.975,0.173-3.213-0.16   c-1.503-0.404-2.907-1.571-3.852-3.203c-0.184-0.317-0.518-0.508-0.877-0.513c-0.06-0.001-0.123,0.003-0.185,0.014   c-1.462,0.24-2.895-0.126-3.934-1.01c-2.223-1.89-1.983-5.048-0.627-7.059c0.754-1.119,1.987-1.927,3.382-2.216   c0.537-0.112,0.893-0.626,0.808-1.169c-0.155-0.996-0.115-1.978,0.118-2.841c0.375-1.389,1.166-3.265,2.815-4.311   c1.047-0.665,1.943-1.009,2.818-1.085c0.773-0.063,1.472-0.034,2.193,0.088c0.452,0.073,0.905-0.154,1.103-0.569   c0.419-0.868,1.072-1.648,1.932-2.284c0.218-0.178,0.444-0.344,0.684-0.498c2.189-1.404,4.715-1.71,6.926-0.839   c0.994,0.392,1.926,1.009,2.694,1.783c0.286,0.292,0.831,0.338,1.209,0.191c1.926-0.733,3.954-0.519,5.869,0.618   c1.977,1.175,3.268,3.374,3.836,6.536c0.074,0.413,0.392,0.74,0.802,0.826c0.352,0.074,0.699,0.177,1.037,0.314   c1.013,0.412,1.874,1.039,2.79,2.032C480.845,234.723,481.417,236.702,481.184,238.82z"/></g><g><g><g><g><path d="M13.779,30c-0.031,0-0.063-0.004-0.094-0.013c-0.158-0.044-0.266-0.191-0.261-0.355l0.027-0.788      c0.003-0.093,0.01-0.187,0.018-0.28c0.015-0.175,0.029-0.341,0.004-0.478c-0.053-0.29-0.099-0.581-0.146-0.873      c-0.133-0.84-0.26-1.633-0.534-2.396c-0.015-0.041-0.029-0.082-0.043-0.123c-0.422,1.509-1.727,2.735-2.988,3.922l-0.206,0.194      c-0.12,0.112-0.301,0.128-0.439,0.038c-0.137-0.09-0.195-0.263-0.139-0.418l0.269-0.742c0.031-0.087,0.068-0.173,0.104-0.26      c0.068-0.162,0.133-0.315,0.152-0.454c0.039-0.291,0.085-0.581,0.131-0.871c0.133-0.841,0.259-1.636,0.234-2.449      c-0.001-0.043-0.002-0.087-0.003-0.13c-0.868,1.306-2.49,2.07-4.058,2.808l-0.252,0.119c-0.148,0.068-0.326,0.03-0.429-0.1      c-0.103-0.128-0.104-0.311-0.002-0.44l0.485-0.621c0.057-0.074,0.118-0.145,0.18-0.216c0.115-0.133,0.223-0.259,0.284-0.385      c0.128-0.265,0.262-0.528,0.396-0.791c0.386-0.758,0.75-1.474,0.977-2.253c0.012-0.042,0.024-0.083,0.037-0.125      c-1.229,0.973-3.005,1.199-4.724,1.417l-0.28,0.036C2.32,22.992,2.16,22.9,2.103,22.746c-0.058-0.154-0.003-0.327,0.133-0.42      l0.653-0.441c0.077-0.052,0.158-0.101,0.238-0.15c0.151-0.091,0.293-0.177,0.39-0.279c0.203-0.212,0.412-0.421,0.621-0.63      c0.601-0.602,1.169-1.17,1.625-1.841c0.025-0.037,0.051-0.072,0.076-0.108c-1.472,0.546-3.232,0.211-4.935-0.112l-0.275-0.052      c-0.161-0.03-0.281-0.168-0.289-0.332c-0.008-0.164,0.099-0.312,0.257-0.358l0.758-0.218c0.089-0.026,0.181-0.048,0.273-0.069      c0.171-0.04,0.332-0.078,0.455-0.144c0.259-0.139,0.521-0.273,0.783-0.407c0.758-0.387,1.475-0.752,2.117-1.25      c0.034-0.027,0.069-0.053,0.104-0.08c-1.564,0.08-3.137-0.797-4.656-1.631l-0.246-0.135c-0.145-0.079-0.215-0.247-0.172-0.406      s0.163-0.294,0.355-0.261l0.787,0.027c0.093,0.003,0.187,0.01,0.28,0.018c0.175,0.014,0.341,0.028,0.478,0.004      c0.29-0.053,0.582-0.1,0.875-0.146c0.84-0.134,1.632-0.26,2.395-0.534c0.041-0.014,0.082-0.029,0.124-0.043      c-1.51-0.421-2.736-1.726-3.923-2.988L1.19,9.558c-0.112-0.12-0.128-0.301-0.038-0.439C1.242,8.982,1.416,8.926,1.57,8.98      L2.311,9.25c0.087,0.031,0.174,0.068,0.261,0.104c0.162,0.068,0.315,0.133,0.454,0.152C3.317,9.544,3.607,9.59,3.897,9.636      C4.739,9.77,5.531,9.892,6.346,9.87c0.043-0.001,0.086-0.002,0.13-0.003C5.171,8.998,4.407,7.378,3.668,5.811l-0.12-0.255      C3.478,5.408,3.519,5.23,3.648,5.127c0.128-0.103,0.31-0.104,0.44-0.002L4.709,5.61C4.783,5.667,4.855,5.729,4.926,5.79      C5.059,5.905,5.184,6.013,5.31,6.074c0.265,0.127,0.527,0.261,0.79,0.395c0.758,0.386,1.474,0.751,2.254,0.978      C8.396,7.458,8.438,7.47,8.48,7.484C7.506,6.255,7.281,4.476,7.063,2.757L7.027,2.48C7.007,2.317,7.1,2.161,7.254,2.103      C7.408,2.046,7.582,2.1,7.674,2.236l0.441,0.652c0.053,0.077,0.101,0.157,0.149,0.237C8.355,3.277,8.441,3.42,8.543,3.517      c0.212,0.203,0.421,0.412,0.63,0.62c0.602,0.601,1.171,1.17,1.842,1.626c0.036,0.025,0.072,0.05,0.107,0.075      c-0.547-1.471-0.212-3.231,0.112-4.934l0.053-0.275c0.03-0.161,0.168-0.281,0.332-0.289c0.163-0.013,0.312,0.099,0.358,0.257      l0.218,0.757c0.026,0.09,0.048,0.181,0.069,0.272c0.04,0.172,0.078,0.334,0.144,0.457c0.14,0.259,0.273,0.522,0.408,0.784      c0.386,0.758,0.752,1.474,1.249,2.116c0.026,0.034,0.053,0.069,0.079,0.104C14.078,3.52,14.94,1.95,15.774,0.431l0.135-0.246      c0.078-0.144,0.245-0.217,0.405-0.172c0.159,0.043,0.267,0.19,0.261,0.354l-0.027,0.788c-0.003,0.092-0.01,0.185-0.018,0.279      c-0.014,0.175-0.028,0.341-0.003,0.479c0.052,0.289,0.099,0.579,0.145,0.87c0.134,0.841,0.26,1.635,0.534,2.4      c0.015,0.041,0.029,0.082,0.043,0.123c0.422-1.509,1.727-2.735,2.988-3.922l0.206-0.194c0.12-0.113,0.301-0.129,0.439-0.038      c0.137,0.09,0.195,0.263,0.139,0.418L20.75,2.312c-0.031,0.087-0.068,0.175-0.105,0.262c-0.068,0.162-0.132,0.315-0.151,0.453      c-0.039,0.292-0.085,0.584-0.132,0.876c-0.133,0.84-0.258,1.632-0.233,2.443c0.001,0.043,0.002,0.087,0.003,0.13      c0.867-1.305,2.487-2.068,4.053-2.806l0.257-0.121c0.148-0.069,0.325-0.03,0.429,0.099c0.103,0.128,0.104,0.311,0.002,0.44      L24.39,4.709c-0.057,0.074-0.119,0.146-0.181,0.217c-0.114,0.133-0.223,0.258-0.283,0.384c-0.127,0.265-0.261,0.527-0.395,0.79      c-0.386,0.758-0.751,1.474-0.978,2.254c-0.012,0.042-0.024,0.083-0.037,0.125c1.23-0.974,3.008-1.199,4.728-1.417l0.275-0.035      c0.163-0.02,0.319,0.073,0.377,0.227c0.058,0.154,0.002,0.327-0.134,0.42l-0.653,0.441c-0.077,0.052-0.157,0.101-0.237,0.149      c-0.151,0.091-0.294,0.178-0.391,0.279c-0.203,0.212-0.412,0.421-0.62,0.63c-0.601,0.602-1.169,1.17-1.626,1.842      c-0.025,0.037-0.052,0.073-0.079,0.108c0,0,0.001,0,0.002-0.001c1.471-0.548,3.232-0.212,4.935,0.112l0.275,0.053      c0.161,0.03,0.281,0.168,0.289,0.332c0.008,0.164-0.099,0.312-0.257,0.358l-0.757,0.218c-0.09,0.026-0.181,0.048-0.272,0.069      c-0.172,0.04-0.334,0.078-0.458,0.145c-0.259,0.139-0.522,0.273-0.785,0.407c-0.758,0.387-1.473,0.751-2.115,1.249      c-0.035,0.027-0.07,0.053-0.105,0.08c1.57-0.067,3.137,0.796,4.656,1.63l0.247,0.135c0.144,0.079,0.215,0.247,0.172,0.405      c-0.043,0.158-0.207,0.264-0.354,0.261l-0.788-0.027c-0.094-0.003-0.187-0.01-0.281-0.018c-0.176-0.015-0.341-0.029-0.477-0.004      c-0.289,0.052-0.58,0.099-0.871,0.145c-0.841,0.134-1.635,0.26-2.399,0.534c0,0,0,0,0,0c-0.042,0.015-0.083,0.029-0.125,0.042      c1.51,0.422,2.737,1.727,3.924,2.989l0.194,0.206c0.112,0.12,0.128,0.301,0.038,0.439c-0.09,0.138-0.264,0.195-0.418,0.139      l-0.741-0.269c-0.088-0.032-0.174-0.068-0.262-0.105c-0.161-0.068-0.315-0.133-0.454-0.152      c-0.292-0.039-0.584-0.085-0.876-0.132c-0.84-0.133-1.626-0.256-2.443-0.233c-0.044,0.002-0.088,0.003-0.132,0.002h0      c1.308,0.869,2.072,2.491,2.811,4.06l0.118,0.251c0.07,0.149,0.029,0.326-0.099,0.429c-0.129,0.103-0.311,0.103-0.44,0.002      L25.29,24.39c-0.073-0.057-0.144-0.118-0.215-0.18c-0.133-0.115-0.259-0.223-0.385-0.284c-0.265-0.128-0.528-0.262-0.79-0.395      c-0.758-0.386-1.474-0.75-2.254-0.977c-0.043-0.012-0.085-0.026-0.126-0.039l0,0c0.975,1.229,1.2,3.006,1.418,4.726l0.036,0.28      c0.021,0.163-0.073,0.319-0.227,0.377c-0.151,0.06-0.326,0.003-0.42-0.133l-0.441-0.653c-0.052-0.077-0.102-0.158-0.151-0.239      c-0.091-0.151-0.177-0.292-0.278-0.389c-0.212-0.203-0.421-0.412-0.63-0.62c-0.602-0.601-1.17-1.169-1.841-1.626      c-0.038-0.026-0.074-0.053-0.11-0.082c0,0.002,0.001,0.003,0.002,0.005c0.547,1.471,0.212,3.232-0.112,4.935l-0.053,0.275      c-0.03,0.161-0.168,0.281-0.332,0.289c-0.169,0.013-0.312-0.099-0.358-0.257l-0.218-0.758c-0.026-0.089-0.048-0.181-0.069-0.273      c-0.04-0.171-0.078-0.332-0.144-0.455c-0.14-0.259-0.273-0.522-0.407-0.784c-0.387-0.758-0.752-1.474-1.249-2.116      c-0.027-0.035-0.053-0.07-0.08-0.105c0.066,1.566-0.796,3.137-1.63,4.656l-0.135,0.247C14.027,29.931,13.906,30,13.779,30z       M12.695,23.529c0.026,0,0.051,0.003,0.076,0.011l0.222,0.056c0.122,0.034,0.217,0.13,0.25,0.253      c0.063,0.244,0.133,0.487,0.219,0.727c0.298,0.827,0.435,1.69,0.568,2.525c0.046,0.286,0.091,0.573,0.143,0.858      c0.01,0.057,0.017,0.114,0.021,0.171c0.567-1.1,0.997-2.158,0.953-3.189c-0.008-0.192,0.004-0.384,0.016-0.576l0.008-0.128      c0.011-0.184,0.16-0.329,0.344-0.335l0.255-0.012c0.134-0.001,0.285,0.051,0.355,0.157c0.125,0.189,0.241,0.366,0.372,0.535      c0.539,0.694,0.937,1.474,1.321,2.229c0.131,0.258,0.263,0.516,0.4,0.77c0.028,0.052,0.052,0.104,0.073,0.157      c0.2-1.222,0.282-2.361-0.078-3.328c-0.053-0.143-0.093-0.292-0.131-0.441l-0.041-0.156c-0.049-0.179,0.047-0.365,0.221-0.428      l0.125-0.044c0.078-0.027,0.157-0.054,0.233-0.086c0.117-0.049,0.253-0.031,0.354,0.049c0.069,0.054,0.134,0.112,0.199,0.171      c0.069,0.062,0.137,0.125,0.214,0.178c0.727,0.494,1.346,1.113,1.944,1.711c0.205,0.205,0.41,0.41,0.619,0.609      c0.043,0.041,0.082,0.083,0.118,0.126c-0.188-1.223-0.462-2.332-1.103-3.141c-0.084-0.106-0.157-0.22-0.231-0.335l-0.088-0.136      c-0.103-0.154-0.07-0.36,0.074-0.474c0.097-0.078,0.19-0.159,0.284-0.241c0.097-0.085,0.234-0.11,0.354-0.066l0.124,0.045      c0.12,0.045,0.24,0.089,0.364,0.125c0.843,0.245,1.624,0.642,2.377,1.026c0.258,0.131,0.516,0.263,0.777,0.388      c0.053,0.026,0.103,0.054,0.151,0.084c-0.557-1.105-1.16-2.076-2.02-2.647c-0.109-0.073-0.212-0.157-0.315-0.241l-0.126-0.103      c-0.144-0.113-0.178-0.317-0.079-0.471c0.068-0.105,0.133-0.214,0.196-0.322c0.066-0.112,0.183-0.193,0.318-0.176l0.135,0.004      c0.124,0.005,0.247,0.009,0.374,0.006c0.881-0.029,1.741,0.108,2.576,0.241c0.287,0.046,0.574,0.091,0.861,0.13      c0.058,0.008,0.115,0.019,0.17,0.033c-0.871-0.88-1.745-1.616-2.739-1.893c-0.136-0.038-0.268-0.089-0.401-0.141l-0.152-0.059      c-0.169-0.063-0.264-0.243-0.221-0.418l0.038-0.145c0.019-0.068,0.038-0.137,0.052-0.207c0.026-0.129,0.122-0.233,0.249-0.27      l0.131-0.038c0.127-0.036,0.255-0.071,0.38-0.117c0.828-0.298,1.692-0.435,2.529-0.567c0.285-0.046,0.571-0.091,0.854-0.142      c0.057-0.011,0.115-0.017,0.171-0.021c-1.1-0.567-2.148-0.992-3.19-0.954c-0.163,0.006-0.327-0.003-0.49-0.013l-0.16-0.009      c-0.178-0.008-0.322-0.148-0.337-0.326c-0.009-0.105-0.018-0.211-0.03-0.315c-0.016-0.133,0.045-0.263,0.156-0.337      c0.208-0.138,0.358-0.237,0.502-0.349c0.695-0.538,1.474-0.936,2.228-1.32c0.258-0.132,0.516-0.263,0.771-0.4      c0.052-0.028,0.105-0.052,0.157-0.073c-1.222-0.2-2.361-0.282-3.328,0.078c-0.197,0.073-0.402,0.126-0.607,0.178L23.7,11.992      c-0.172,0.044-0.346-0.044-0.415-0.204c-0.021-0.051-0.046-0.1-0.071-0.149l-0.058-0.119c-0.057-0.123-0.04-0.268,0.045-0.373      c0.063-0.078,0.129-0.152,0.196-0.226c0.088-0.098,0.178-0.195,0.253-0.306c0.494-0.727,1.112-1.346,1.711-1.944      c0.205-0.205,0.41-0.41,0.609-0.619c0.04-0.043,0.083-0.081,0.126-0.117c-1.223,0.188-2.332,0.462-3.141,1.103      c-0.224,0.177-0.468,0.331-0.714,0.482c-0.146,0.089-0.337,0.062-0.452-0.067l-0.121-0.134c-0.095-0.101-0.122-0.247-0.07-0.375      c0.103-0.256,0.195-0.518,0.274-0.788c0.245-0.843,0.642-1.624,1.026-2.378c0.131-0.258,0.263-0.516,0.388-0.776      c0.026-0.053,0.053-0.103,0.084-0.151c-1.105,0.557-2.075,1.16-2.646,2.019c-0.16,0.241-0.352,0.487-0.603,0.773      c-0.112,0.129-0.299,0.158-0.446,0.072c-0.118-0.069-0.292-0.263-0.281-0.399c0.025-0.314,0.037-0.63,0.027-0.949      c-0.028-0.877,0.109-1.741,0.241-2.576c0.046-0.287,0.091-0.574,0.13-0.861c0.008-0.058,0.019-0.115,0.033-0.17      c-0.88,0.871-1.616,1.745-1.893,2.739c-0.094,0.338-0.219,0.683-0.373,1.027c-0.069,0.156-0.243,0.243-0.406,0.2      c-0.132-0.031-0.296-0.151-0.325-0.283c-0.088-0.392-0.18-0.716-0.289-1.02c-0.298-0.827-0.435-1.692-0.568-2.528      c-0.045-0.285-0.09-0.571-0.142-0.854c-0.01-0.058-0.017-0.115-0.021-0.171c-0.567,1.1-0.998,2.158-0.954,3.19      c0.016,0.369-0.002,0.758-0.053,1.188c-0.018,0.152-0.132,0.274-0.281,0.305c-0.148,0.033-0.302-0.037-0.379-0.17      c-0.223-0.386-0.425-0.692-0.636-0.964c-0.538-0.695-0.936-1.474-1.32-2.228c-0.132-0.258-0.263-0.516-0.4-0.77      c-0.028-0.052-0.052-0.104-0.073-0.157c-0.199,1.221-0.282,2.361,0.078,3.328c0.131,0.353,0.237,0.743,0.323,1.194      c0.029,0.15-0.042,0.301-0.175,0.376c-0.134,0.075-0.299,0.056-0.412-0.046L11.386,6.99c-0.256-0.233-0.498-0.454-0.771-0.64      C9.889,5.856,9.27,5.237,8.671,4.639c-0.205-0.205-0.41-0.41-0.619-0.609C8.01,3.989,7.971,3.947,7.934,3.903      c0.188,1.223,0.462,2.332,1.103,3.141c0.23,0.291,0.444,0.615,0.654,0.992C9.766,8.17,9.747,8.336,9.644,8.449      C9.541,8.561,9.378,8.597,9.238,8.534c-0.407-0.181-0.75-0.31-1.081-0.406C7.313,7.883,6.533,7.485,5.778,7.101      C5.52,6.97,5.263,6.839,5.002,6.714C4.95,6.688,4.899,6.66,4.851,6.63c0.557,1.105,1.16,2.075,2.02,2.646      C7.18,9.482,7.484,9.725,7.8,10.018c0.112,0.104,0.145,0.267,0.082,0.407c-0.063,0.139-0.203,0.226-0.36,0.207      c-0.446-0.046-0.814-0.064-1.154-0.052c-0.886,0.027-1.745-0.109-2.582-0.242c-0.285-0.045-0.57-0.09-0.855-0.129      c-0.058-0.007-0.114-0.019-0.169-0.033c0.871,0.879,1.744,1.616,2.738,1.893c0.359,0.1,0.723,0.237,1.113,0.418      c0.138,0.064,0.22,0.21,0.203,0.362C6.799,13,6.687,13.124,6.538,13.156c-0.436,0.093-0.789,0.191-1.113,0.307      C4.599,13.76,3.735,13.897,2.9,14.03c-0.287,0.046-0.574,0.091-0.859,0.143c-0.057,0.01-0.114,0.017-0.171,0.021      c1.1,0.567,2.15,0.994,3.189,0.953c0.372-0.014,0.761,0.002,1.188,0.053c0.152,0.018,0.274,0.132,0.305,0.281      c0.031,0.15-0.038,0.302-0.17,0.379c-0.386,0.223-0.692,0.425-0.964,0.636c-0.695,0.539-1.475,0.937-2.23,1.321      c-0.258,0.131-0.515,0.263-0.769,0.399c-0.052,0.028-0.104,0.052-0.157,0.073c1.221,0.2,2.361,0.282,3.328-0.078      c0.346-0.129,0.71-0.23,1.114-0.312c0.174-0.031,0.343,0.062,0.403,0.225c0.045,0.123,0.04,0.317-0.047,0.415l-0.163,0.181      c-0.2,0.221-0.389,0.429-0.548,0.663c-0.494,0.727-1.112,1.345-1.71,1.943c-0.205,0.205-0.41,0.41-0.61,0.619      c-0.041,0.043-0.083,0.082-0.126,0.118c1.223-0.188,2.332-0.462,3.141-1.103c0.257-0.204,0.541-0.396,0.869-0.586      c0.154-0.088,0.352-0.05,0.46,0.09c0.078,0.102,0.15,0.31,0.1,0.427c-0.146,0.345-0.259,0.655-0.345,0.949      c-0.245,0.844-0.642,1.623-1.026,2.377c-0.131,0.259-0.263,0.517-0.388,0.778c-0.026,0.053-0.054,0.103-0.084,0.151      c1.105-0.557,2.076-1.159,2.647-2.019c0.17-0.256,0.366-0.495,0.569-0.729c0.119-0.139,0.324-0.163,0.473-0.057      c0.102,0.072,0.288,0.287,0.279,0.412c-0.021,0.29-0.027,0.582-0.018,0.878c0.028,0.879-0.109,1.744-0.242,2.581      c-0.045,0.285-0.09,0.57-0.129,0.855c-0.007,0.058-0.019,0.114-0.033,0.169c0.879-0.871,1.616-1.744,1.893-2.738      c0.066-0.238,0.158-0.469,0.252-0.7C12.378,23.654,12.54,23.529,12.695,23.529z M24.696,16.871h0.009H24.696z"/></g></g></g><g><g><g><path d="M15,23.141c-4.489,0-8.141-3.652-8.141-8.141c0-4.489,3.652-8.141,8.141-8.141c4.489,0,8.141,3.652,8.141,8.141      C23.141,19.489,19.489,23.141,15,23.141z M15,7.671c-4.042,0-7.33,3.288-7.33,7.33S10.958,22.33,15,22.33      s7.329-3.288,7.329-7.329S19.042,7.671,15,7.671z"/></g></g></g><g><g><g><path d="M20.429,15.719c-0.196,0-0.355-0.159-0.355-0.355c0-3.041-2.474-5.515-5.515-5.515c-0.196,0-0.355-0.159-0.355-0.355      c0-0.196,0.159-0.355,0.355-0.355c3.433,0,6.226,2.793,6.226,6.225C20.784,15.56,20.625,15.719,20.429,15.719z"/></g></g></g></g><text x="0" y="45" fill="#000000" font-size="5px" font-weight="bold" font-family="'Helvetica Neue', Helvetica, Arial-Unicode, Arial, Sans-serif">Created by Atif Arshad</text><text x="0" y="50" fill="#000000" font-size="5px" font-weight="bold" font-family="'Helvetica Neue', Helvetica, Arial-Unicode, Arial, Sans-serif">from the Noun Project</text></svg>